<?xml version="1.0" encoding="utf-8"?>
<!-- Generator: Adobe Illustrator 27.0.0, SVG Export Plug-In . SVG Version: 6.00 Build 0)  -->
<svg version="1.1" id="Layer_1" xmlns="http://www.w3.org/2000/svg" xmlns:xlink="http://www.w3.org/1999/xlink" x="0px" y="0px"
	 viewBox="0 0 99.2 99.2" style="enable-background:new 0 0 99.2 99.2;" xml:space="preserve">
<path d="M79.5,42c-1.4-1.8-3.6-2.8-5.9-2.8h-4.8l-6.9-17.8c-0.3-0.9-1-1.6-1.8-1.9c-0.9-0.4-1.8-0.4-2.7-0.1c-0.9,0.3-1.6,1-1.9,1.8
	C55,22.1,55,23,55.3,23.9l5.9,15.2H37.9l5.9-15.2c0.3-0.9,0.3-1.8-0.1-2.7c-0.4-0.8-1-1.5-1.9-1.9C41,19,40.1,19,39.2,19.4
	c-0.9,0.4-1.5,1.1-1.8,1.9l-6.9,17.8h-4.8c-2.3,0-4.4,1-5.9,2.8c-1.4,1.8-2,4.1-1.4,6.3l5.4,23.3l0,0c1.3,5,5.9,8.5,11.1,8.5h29.6
	c5.4,0,10-3.7,11.2-8.9l5.3-22.9C81.4,46,80.9,43.7,79.5,42z M74.1,46.7l-5.3,22.9c-0.5,2.1-2.3,3.5-4.4,3.5H34.8
	c-2.1,0-3.9-1.4-4.4-3.5l-5.3-22.9c0-0.1,0-0.2,0-0.3l0.1-0.1c0.1-0.1,0.2-0.2,0.4-0.2h48c0.2,0,0.3,0.1,0.4,0.2
	C74.1,46.4,74.1,46.6,74.1,46.7z"/>
</svg>
