<?xml version="1.0" encoding="utf-8"?>
<!-- Generator: Adobe Illustrator 27.0.0, SVG Export Plug-In . SVG Version: 6.00 Build 0)  -->
<svg version="1.1" id="Layer_1" xmlns="http://www.w3.org/2000/svg" xmlns:xlink="http://www.w3.org/1999/xlink" x="0px" y="0px"
	 viewBox="0 0 27 27" style="enable-background:new 0 0 27 27;" xml:space="preserve">
<path d="M25.9,10.3c-0.6-0.7-1.4-1.2-2.4-1.2h-2.1l-2.9-7.7c-0.1-0.3-0.4-0.6-0.7-0.8c-0.3-0.2-0.7-0.2-1,0C16.4,0.7,16.2,1,16,1.3
	c-0.1,0.3-0.2,0.7,0,1l2.5,6.8H8.4L11,2.4c0.1-0.3,0.1-0.7,0-1c-0.1-0.3-0.4-0.6-0.7-0.7c-0.3-0.1-0.7-0.1-1,0
	C8.9,0.8,8.6,1,8.5,1.4L5.6,9.1H3.5c-0.9,0-1.8,0.4-2.4,1.2C0.6,11,0.4,12,0.6,12.9l2.2,10l0,0c0.5,2.1,2.4,3.6,4.5,3.6h12.4
	c2.2,0,4.1-1.5,4.5-3.7l2.2-9.9C26.6,12,26.4,11,25.9,10.3z M23.8,12.3l-2.2,9.9c-0.2,0.9-1,1.6-2,1.6H7.3c-0.9,0-1.7-0.7-2-1.6
	l-2.2-9.9c0-0.1,0-0.2,0-0.2L3.2,12c0.1-0.1,0.2-0.1,0.3-0.1h20c0.1,0,0.2,0,0.3,0.1C23.8,12.1,23.8,12.2,23.8,12.3z"/>
</svg>
