<?xml version="1.0" encoding="utf-8"?>
<!-- Generator: Adobe Illustrator 27.0.0, SVG Export Plug-In . SVG Version: 6.00 Build 0)  -->
<svg version="1.1" id="Layer_1" xmlns="http://www.w3.org/2000/svg" xmlns:xlink="http://www.w3.org/1999/xlink" x="0px" y="0px"
	 viewBox="0 0 99.2 99.2" style="enable-background:new 0 0 99.2 99.2;" xml:space="preserve">
<path d="M60.6,22.1c-4.1,0-7.5,1.2-10.7,3.8l-0.3,0.3l-0.3-0.3c-3.1-2.5-6.6-3.8-10.7-3.8c-10.8,0-19.5,8.7-19.5,19.5
	c0,17,24.2,35.5,30.5,35.5c6.3,0,30.5-18.5,30.5-35.5C80.1,30.9,71.4,22.1,60.6,22.1z M71.5,48.6C66.9,59.1,53.3,68.9,49.8,70
	l-0.2,0.1L49.4,70c-3.5-1.2-17.2-10.9-21.8-21.4c-2-4.5-2.1-8.7-0.4-12.3c2.1-4.6,6.9-7.5,12.1-7.1c2.9,0.2,5.1,1.4,7.6,4.2l0.8,0.9
	c0.4,0.5,1.1,0.8,1.8,0.8c0.7,0,1.4-0.3,1.8-0.8l0.8-0.9c2.5-2.8,4.7-4.1,7.6-4.2c5.2-0.3,9.9,2.5,12.1,7.1
	C73.6,39.9,73.5,44.1,71.5,48.6z"/>
</svg>
