<?xml version="1.0" encoding="utf-8"?>
<!-- Generator: Adobe Illustrator 27.0.0, SVG Export Plug-In . SVG Version: 6.00 Build 0)  -->
<svg version="1.1" id="Layer_1" xmlns="http://www.w3.org/2000/svg" xmlns:xlink="http://www.w3.org/1999/xlink" x="0px" y="0px"
	 viewBox="0 0 27 23" style="enable-background:new 0 0 27 23;" xml:space="preserve">
<path d="M18.2,0.5c-1.7,0-3.2,0.5-4.5,1.5l-0.2,0.2L13.3,2c-1.3-1-2.8-1.5-4.5-1.5C4.2,0.5,0.5,4,0.5,8.3c0,6.8,10.3,14.2,13,14.2
	c2.7,0,13-7.4,13-14.2C26.5,4,22.8,0.5,18.2,0.5z M23.1,11.1c-2,4.3-7.9,8.3-9.5,8.7l-0.1,0l-0.1,0c-1.5-0.5-7.5-4.4-9.5-8.7
	C3.1,9.3,3,7.6,3.7,6.1c0.9-1.9,3-3.1,5.4-3c1.3,0.1,2.3,0.6,3.4,1.8l0.3,0.4c0.3,0.4,1,0.3,1.3,0l0.4-0.4c1.1-1.2,2.1-1.7,3.4-1.8
	c2.3-0.1,4.4,1,5.4,3C24,7.6,23.9,9.3,23.1,11.1z"/>
</svg>
