<?xml version="1.0" encoding="utf-8"?>
<!-- Generator: Adobe Illustrator 27.0.0, SVG Export Plug-In . SVG Version: 6.00 Build 0)  -->
<svg version="1.1" id="Layer_1" xmlns="http://www.w3.org/2000/svg" xmlns:xlink="http://www.w3.org/1999/xlink" x="0px" y="0px"
	 viewBox="0 0 26 27" style="enable-background:new 0 0 26 27;" xml:space="preserve">
<style type="text/css">
	.st0{fill:#C00000;}
</style>
<path class="st0" d="M23.5,16.6c-0.8-0.7-2.1-1.8-3.8-2.8l-0.3-0.2l0.2-0.3c1.1-1.4,1.7-3.1,1.6-5c-0.1-4.2-3.5-7.7-7.9-7.8l-0.3,0
	c-4.5,0-8.2,3.6-8.2,8c0,1.8,0.6,3.4,1.7,4.8l0.2,0.3l-0.3,0.2c-1.7,0.9-3,2-3.8,2.8c-1.3,1.1-2,2.8-2,4.4l0,2.5c0,1.7,1.4,3,3.1,3
	h18.9c1.7,0,3.1-1.3,3.1-3V21C25.5,19.3,24.8,17.7,23.5,16.6z M10.5,13.9c0-0.4-0.2-0.8-0.5-1c-1.5-1-2.5-2.7-2.5-4.4
	c0-1.5,0.6-2.8,1.7-3.8c1-1,2.4-1.5,3.8-1.5c0.1,0,0.2,0,0.2,0c2.9,0.1,5.2,2.5,5.3,5.2c0,1.8-0.9,3.5-2.5,4.5
	c-0.3,0.2-0.5,0.6-0.5,1.1c0,0.5,0.3,1,0.8,1.2c2.4,0.9,4.2,2.3,5.3,3.3c0.7,0.6,1.1,1.5,1.1,2.5v2.5c0,0.2-0.2,0.3-0.4,0.3l-18.9,0
	c-0.2,0-0.4-0.1-0.4-0.3V21c0-0.9,0.4-1.8,1.1-2.5c1.1-1,3-2.5,5.4-3.3C10.2,15,10.5,14.5,10.5,13.9z"/>
</svg>
