<?xml version="1.0" encoding="utf-8"?>
<!-- Generator: Adobe Illustrator 27.0.0, SVG Export Plug-In . SVG Version: 6.00 Build 0)  -->
<svg version="1.1" id="Layer_1" xmlns="http://www.w3.org/2000/svg" xmlns:xlink="http://www.w3.org/1999/xlink" x="0px" y="0px"
	 viewBox="0 0 21 26" style="enable-background:new 0 0 21 26;" xml:space="preserve">
<path d="M20.3,23.4l-3.8-5.6l0.2-0.2c1.9-1.9,3-4.4,3-7.2c0-5.5-4.3-9.9-9.6-9.9c-5.3,0-9.6,4.5-9.6,9.9c0,5.5,4.3,9.9,9.6,9.9h1.1
	l-0.1-0.1c1-0.1,2-0.4,2.9-0.8l0.2-0.1l3.8,5.6c0.2,0.3,0.5,0.5,0.9,0.5c0.1,0,0.2,0,0.2,0c0.3,0,0.5-0.1,0.8-0.2
	c0.3-0.2,0.5-0.5,0.5-0.9C20.5,24,20.5,23.7,20.3,23.4z M17,10.4c0,4-3.1,7.2-6.9,7.2c-3.8,0-6.9-3.2-6.9-7.2c0-4,3.1-7.2,6.9-7.2
	C13.9,3.2,17,6.4,17,10.4z"/>
</svg>
