<?xml version="1.0" encoding="utf-8"?>
<!-- Generator: Adobe Illustrator 27.0.0, SVG Export Plug-In . SVG Version: 6.00 Build 0)  -->
<svg version="1.1" id="Layer_1" xmlns="http://www.w3.org/2000/svg" xmlns:xlink="http://www.w3.org/1999/xlink" x="0px" y="0px"
	 viewBox="0 0 715 715" style="enable-background:new 0 0 715 715;" xml:space="preserve">
<style type="text/css">
	.st0{fill:#06141F;}
	.st1{fill:#D3D2D2;}
	.st2{fill:#EB605B;}
	.st3{fill:#EB0028;}
	.st4{fill:#FFFFFF;}
</style>
<g>
	<path class="st0" d="M9,158.2h697L601.9,366.8c-61.7-46.4-151.8-61.7-151.8-61.7l31.2,320.6l-123.8,82.7l-131.3-83.4l37.9-323.3
		c0,0-74.5,17.3-151.2,63L9,158.2z"/>
</g>
<g>
	<path class="st1" d="M232.2,622.1l125.2,79.6l118-78.7l-31.6-324.5l7.1,1.2c3.7,0.6,87.2,15.2,148.8,58.8L697,163.7H18l97.2,193.1
		c74.8-43.4,147-60.5,147.7-60.6l7.7-1.9L232.2,622.1z M357.6,715l-137.3-87.3l37.4-318.7c-49.7,13.9-97.4,34.2-142,60.4l-5.2,3.1
		L0,152.6h715L603.9,375.3l-5.4-4c-49.9-37.6-119.7-54.6-142.1-59.3l30.8,316.4L357.6,715z"/>
</g>
<g>
	<path class="st2" d="M661.1,185.2H55.4l73.3,116.1c0,0,70.8-30.2,163.4-30.2l-19.4,331.4l85.6,45l84-45l-20.1-332.2
		c0,0,91.8,1.6,164.9,29.3L661.1,185.2z"/>
</g>
<g>
	<path class="st3" d="M358.2,647.5l84-45l-20.1-332.2c0,0,91.7,1.5,164.9,29.3l37.3-55.9c-128.7-19.7-266.1-19.9-266.1-19.9v325.9
		l-85.6,52.8L358.2,647.5z"/>
</g>
<g>
	<path class="st3" d="M292.1,271c0,0-76.9-3.5-163.4,30.2l-35.8-55.1c96.7-19.1,265.4-22.3,265.4-22.3L292.1,271z"/>
</g>
<g>
	<path class="st4" d="M278.4,599.3l79.8,41.9l78.3-41.9l-20.4-334.6l6,0.1c3.8,0.1,90.2,1.8,162.6,28.1l66.1-102.2H65.5l65.4,103.6
		c17.1-6.6,80.5-28.8,161.2-28.8h5.9L278.4,599.3z M358.3,653.7l-91.3-48l19.2-329.1c-87.5,1.3-154.6,29.4-155.3,29.7l-4.4,1.9
		L45.3,179.7h626l-82,126.8l-4.3-1.6c-60.7-23.2-135.6-28-157-28.8L448,605.8L358.3,653.7z"/>
</g>
</svg>
