<?xml version="1.0" encoding="utf-8"?>
<!-- Generator: Adobe Illustrator 27.0.0, SVG Export Plug-In . SVG Version: 6.00 Build 0)  -->
<svg version="1.1" id="Layer_1" xmlns="http://www.w3.org/2000/svg" xmlns:xlink="http://www.w3.org/1999/xlink" x="0px" y="0px"
	 viewBox="0 0 208.1 67.3" style="enable-background:new 0 0 208.1 67.3;" xml:space="preserve">
<style type="text/css">
	.st0{fill:#D00000;}
</style>
<path d="M197.7,0c0.3,0.6,0.9,1.1,0.9,1.7c0.1,2.2,0.1,4.5,0,6.7c0,0.6-0.3,1.4-0.8,1.8c-1.5,1.1-3.2,2-5.1,3.1v-9
	c-0.8,0.5-1.3,0.7-1.7,1c-3.7,2.3-7.3,4.7-11,7c-0.5,0.3-1.2,0.6-1.8,0.6c-2.6,0.1-5.1,0-7.7,0c-1.1,0-1.5-0.5-1.5-1.5
	c0-3.3,0-6.6,0-10.2c-3.1,1.8-5.9,3.5-9,5.3c2.2,2.1,4.3,4,6.4,6l-0.2,0.4c-1.9,0-3.9,0.1-5.8,0c-0.4,0-0.9-0.4-1.2-0.8
	c-1-1.1-2-2.2-3-3.3c-1.9,1.1-3.5,2-5.1,3c-1.3,0.9-2.6,1.2-4.1,1.1c-1.1-0.1-2.2-0.1-3.3,0c-1.2,0.1-1.8-0.4-1.7-1.6
	c0.1-2.1,0-4.2,0-6.2c0-1.1,0.4-1.8,1.4-2.4c1.4-0.8,2.8-1.7,4.2-2.5h0.3v10c0.8-0.4,1.2-0.6,1.6-0.9c5.2-3,10.4-6.1,15.6-9.1h8.7
	c0.3,0.6,0.9,1.1,0.9,1.6c0.1,2.9,0,5.8,0.1,8.8c0,0.4,0.1,0.8,0.1,1.4c0.5-0.2,0.7-0.4,1-0.5c3.8-2.4,7.6-4.9,11.5-7.3
	c2.1-1.3,4.2-2.6,6.4-3.9L197.7,0L197.7,0z"/>
<path class="st0" d="M203.7,20.1l-71.8-0.5l-68.5-0.1c-0.4,0-0.8,0.1-1.4,0.3l-1.7,0.7v-1h-24L0,19.6l2.5,3.2
	c0.4,0.6,0.9,1.1,1.3,1.6c0.8,1,1.6,1.9,2.1,2.9c1.6,2.8,3.8,4.2,6.9,4.2c0.6,0,1.2-0.1,1.9-0.2c1.6-0.2,3.2-0.3,5-0.3
	c0.4,0,0.7,0,1.1,0v31.9v2.5l2.5-0.6c1.3-0.3,2.5-0.6,3.8-0.9c2.3-0.6,4.6-1.1,6.9-1.7l1.5-0.4v-1.6V30.6c0-0.1,0-0.2,0-0.3h0.4h5.6
	h2v-2v-5.2l0.1,0.1c1.6,1,2.2,2.4,2.1,4.8c-0.1,6.1,0,12.3,0,18.3c0,3.1,0,6.1,0,9.2v1.8v2.4l2.3-0.4c1-0.2,2.1-0.3,3.1-0.5
	c2.6-0.4,5.1-0.8,7.5-1.2l1.7-0.3v-1.7V22.8l1.6,0.7c1.6,0.7,2.1,1.8,2.1,4.9c-0.1,4.6,0,9.3,0,13.8c0,2.3,0,4.6,0,6.9
	c0,4.1,2,6.4,6.1,6.9c0.5,0.1,1,0.1,1.5,0.1s0.9,0,1.4-0.1c4.9-0.3,10-0.7,14.9-1.1c2.8-0.2,5.8-0.3,8.6-0.4l1.9-0.1v-1.9V36v-2h-2
	H81.9h-2v2v5.7v2h2h2v1.7c-0.6,0-1.3,0.1-1.9,0.1c-1.1,0.1-2.3,0.1-3.4,0.2V29h5.2v2v2h2h10.8h2v-2v-4.4c-0.1-1.5-0.4-2.7-1-3.6
	l0.9,0.4c1.9,0.8,2.1,2.1,2.1,5.2c-0.1,4.9,0,9.9,0,14.8c0,2.5,0,4.9,0,7.4v1.6v1.9l1.9,0.1c5.6,0.2,11.1,0.4,16.6,0.6l8.3,0.3
	l2.1,0.1v-2.1v-5.5v-1.9l-1.9-0.1c-4.1-0.2-8.3-0.3-12.4-0.6v-3H126h2v-2v-5.8v-2h-2h-10.8V29h12h2v-2v-3.7l0.2,0.1
	c2,1,2.1,2.4,2.1,5.3V29c-0.1,5.2,0,10.5,0,15.6c0,2.6,0,5.2,0,7.8v1.7v1.8l1.8,0.2c1.8,0.2,3.5,0.4,5.3,0.6
	c1.8,0.2,3.5,0.4,5.3,0.6l2.2,0.2v-2.2V45.2c0.7,0.1,1.3,0.1,2,0.1c1,2.9,2.1,5.7,3.2,8.4c0.3,0.8,0.6,1.6,0.9,2.4v0.1v0.1
	c0.3,0.7,1.1,1.8,2.3,2.1c2.3,0.5,4.6,0.9,7.1,1.4c1,0.2,2.1,0.4,3.2,0.6l3.6,0.7l-1.4-3.4c-1-2.4-1.9-4.7-2.9-7
	c-0.7-1.7-1.4-3.4-2.1-5.2c2.2-1.2,3.4-3.3,3.4-5.9V27.5c0-1.6-0.4-2.9-1.1-4.1c1.8,1,2.4,2.4,2.3,5.5c-0.1,0.7,0,1.4,0,2
	c0,0.6,0,1.1,0,1.6c-0.3,3.8,1.5,6.6,5.2,8.2c4.1,1.8,8.4,3.6,12.4,5.5c0.1,0.1,0.2,0.2,0.3,0.3c0.1,2,0.1,4.1,0.1,6.2
	c0,0.4,0,0.7,0,1.1c-0.3-0.1-0.7-0.1-1-0.2c-0.8-0.2-1.6-0.4-2.5-0.5c0.1-1.1,0-2.2,0-3.2c0-0.6,0-1.1,0-1.7v-1.7l-1.7-0.2
	c-3.9-0.6-7.1-1-10.4-1.6l-2.3-0.4v2.4v5.4c0,5.4,2.7,9.1,7.7,10.6c4.7,1.4,9.7,2.8,15.9,4.3c0.7,0.2,1.4,0.3,2.1,0.3
	c3.6,0,6.1-2.6,6.5-6.8v-0.1v-0.1v-1c0-1.4,0-2.7,0-4.1c0-2.7,0-5.4,0-8.1c0.1-4-1.7-6.8-5.5-8.5c-1.6-0.7-3.1-1.4-4.7-2.1
	c-1.9-0.9-3.9-1.8-6-2.6c-1.9-0.7-2.1-1.3-1.8-2.8c2.6,0.1,5.1,0.2,7.6,0.4c2.5,0.1,5.1,0.3,7.6,0.4c1,0,2.3-0.3,3.2-1.2l0.1-0.1
	l0.1-0.1c1.1-1.4,2.2-2.8,3.4-4.2c0.8-1,1.5-2,2.3-3l2.6-3.2H203.7z M150.9,31.5c0,1.4,0,2.8,0,4.3c-1.5-0.1-3-0.2-4.6-0.3v-5.7
	c1.5,0,3.1,0,4.6,0.1C150.9,30.3,150.9,30.9,150.9,31.5z"/>
<path d="M165.3,21.6c3.1,1.6,3.6,4.3,3.5,7.4c-0.1,1.2,0.1,2.5,0,3.7c-0.2,3,1.3,5,4,6.2c4.2,1.8,8.4,3.6,12.5,5.5
	c0.6,0.3,1.4,1.2,1.4,1.8c0.2,2.9,0.1,5.8,0.1,8.8c0,0.9-0.5,1.2-1.4,1c-1.5-0.3-3-0.7-4.6-1c-1.1-0.2-1.5-0.7-1.5-1.8
	c0.1-1.7,0-3.3,0-5.1c-3.5-0.5-6.8-1-10.4-1.6v5.4c0,4.4,2,7.4,6.3,8.7c5.2,1.6,10.5,3,15.8,4.3c3.5,0.9,5.8-1,6.1-4.7
	c0-0.3,0-0.7,0-1c0-4.1-0.1-8.2,0-12.3c0.1-3.2-1.3-5.3-4.3-6.6c-3.6-1.5-7-3.3-10.6-4.7c-2.6-1-3.5-2.4-3.1-5
	c0.2-1.7,0.2-1.9,2.1-1.8c5.1,0.2,10.1,0.5,15.2,0.7c0.6,0,1.4-0.2,1.8-0.6c1.9-2.3,3.7-4.7,5.7-7.2L165.3,21.6L165.3,21.6z
	 M65.9,28.4c-0.1,6.9,0,13.8,0,20.7c0,3.1,1.3,4.5,4.4,4.9c0.8,0.1,1.6,0.1,2.4,0c4.9-0.3,9.9-0.7,14.9-1.1c2.9-0.2,5.8-0.3,8.7-0.4
	V36H81.9v5.7h4v5.6c-2.6,0.2-5.2,0.3-7.7,0.5c-1.2,0.1-1.6-0.3-1.6-1.5c0-6,0-11.9,0-17.8c0-1,0.3-1.5,1.4-1.5c2.2,0,4.3,0,6.5,0
	c1,0,1.3,0.5,1.3,1.4s0,1.8,0,2.6h10.8c0-1.6,0-3,0-4.4c-0.1-2.3-1.1-3.8-3.2-4.5c-1.1-0.4-2.3-0.6-3.5-0.6c-8.9,0-17.8,0-26.6,0
	c-0.1,0-0.2,0-0.7,0.2C65.6,23,65.9,25.5,65.9,28.4L65.9,28.4L65.9,28.4z M4,21.6c1.3,1.7,2.7,3.1,3.6,4.8c1.5,2.7,3.6,3.5,6.7,3
	c2.7-0.4,5.5-0.3,8.4-0.5v34c3.7-0.9,7.1-1.7,10.7-2.6V30.6c0-2.4-0.4-2.2,2.4-2.3c1.8,0,3.7,0,5.6,0v-6.7L4,21.6L4,21.6z M113.2,27
	h14v-5.5H99.3c3.2,1.4,3.3,4.1,3.3,7c-0.1,7.4,0,14.8,0,22.2v1.6c8.4,0.3,16.6,0.6,24.9,0.9v-5.5c-4.8-0.2-9.6-0.4-14.3-0.7v-6.9
	H126v-5.8h-12.8V27L113.2,27z M47.6,28.1c-0.1,9.2,0,18.3,0,27.5v1.8c3.7-0.6,7.2-1.2,10.6-1.7V21.5H44.6
	C47.1,23.1,47.7,25.4,47.6,28.1z M159.6,44.5c2.5-0.7,4-2.2,4-4.8c0-4.1,0-8.1,0-12.2c0-2.4-1.2-4.3-3.5-5c-1.6-0.5-3.3-0.8-5-0.9
	c-7.8-0.1-15.7,0-23.5,0h-1.3c3.3,1.6,3.2,4.5,3.2,7.4c-0.1,7.8,0,15.6,0,23.4v1.7c3.6,0.4,7,0.8,10.6,1.2V43
	c1.5,0.1,2.8,0.3,4.1,0.3c1.1,0,1.5,0.5,1.8,1.4c1.3,3.6,2.7,7.1,4.1,10.7c0.2,0.4,0.6,1,1,1.1c3.3,0.7,6.6,1.3,10.2,2
	C163.4,53.8,161.5,49.2,159.6,44.5z M151.6,37.8c-2.4-0.2-4.8-0.4-7.3-0.5v-9.6c2.6,0,5.1,0,7.7,0.1c0.3,0,0.9,0.8,0.9,1.2
	c0,2.5-0.1,5.1,0,7.7C152.9,37.6,152.4,37.9,151.6,37.8z"/>
</svg>
