<?xml version="1.0" encoding="utf-8"?>
<!-- Generator: Adobe Illustrator 27.0.0, SVG Export Plug-In . SVG Version: 6.00 Build 0)  -->
<svg version="1.1" id="Layer_1" xmlns="http://www.w3.org/2000/svg" xmlns:xlink="http://www.w3.org/1999/xlink" x="0px" y="0px"
	 viewBox="0 0 432.8 115.1" style="enable-background:new 0 0 432.8 115.1;" xml:space="preserve">
<style type="text/css">
	.st0{fill:#FFFFFF;}
	.st1{fill:#D00000;}
</style>
<path d="M0,0l6.7,8.8c4.4,5.7,19.2,25,25.7,33.7c2,2.7,4.6,4.1,7.8,4.1c0.3,0,0.6,0,1,0c3.3-0.3,6.6-0.4,10.1-0.6v69.2l10.4-2.8
	c2.4-0.7,4.8-1.3,7.1-1.9l1.5-0.4c7.7-1.9,33-7.4,33.2-7.4c6.4-1.1,12.8-2.3,19.1-3.4L123,99c6.3-1.2,12.7-2.4,19.2-3.5l4.5-0.8
	l0-2.6c3.4,1,6.9,1.4,10.7,1.2c2.9-0.2,5.8-0.5,8.8-0.7l4.1-0.4c25.1-2.1,48.6-2.5,70.4-1.1c10.3,0.7,20.7,1.8,30.8,2.9l2.3,0.2
	c32.5,3.5,75.6,12.3,95.4,18.4c2,0.6,7.3,1.5,11.2,1.5c1.3,0,2.5-0.1,3.4-0.3c10.9-2.3,17.9-10.5,18.3-21.4c0.4-11.1,0.4-22,0-32.4
	c-0.2-5.9-2.5-11-6.7-15.1c2.5-1.3,4.7-3.4,6.7-6.3c5.2-7.6,17.2-22.5,20.9-27.1L432.8,0L0,0z"/>
<path class="st0" d="M385.2,38c-7.7-0.4-16.4-0.8-25.3-1.2c6.7,3.1,13.5,6.1,20.2,9.2c9.6,4.3,11,11.3,11,17.5
	c0.1,15.5,0.1,20.7,0,22.9l0,0.3c0,5.8-1.6,10.3-4.7,13.4c-2.7,2.7-6.3,4.1-10.4,4.1l0,0c-2.1,0-4.4-0.4-6.8-1.1
	c-9.2-2.7-33-8.6-33.3-8.7l-12.6-2.6c-5.8-1.2-11.7-2.4-17.3-3.4l-3.4-0.6l-0.2-0.3c-2.5-3.4-5.1-6.8-7.6-10.2l0.1,9.5l-7.8-1.1
	c-5.8-0.8-12.3-1.5-19.4-2.2l-5.6-0.5l-5.3-0.4c-14.4-1.1-28.8-1.7-43.2-1.7l-12.7,0.1c-14.2,0.3-28.4,1.1-42.6,2.6
	c-1.2,0.1-2.4,0.2-3.6,0.2c-5.6,0-10-1.5-13-4.6c-1-1-2.4-2.9-3.5-4.4v11.3l-5.5,0.8c-6.6,1-13.1,2.1-19.7,3.3l-7.7,1.4l0-56.2
	l-3.6,0.1c-1.9,0.1-3.8,0.1-5.8,0.2l-0.9,0v58l-7.4,1.8c-6.4,1.5-13,3-19.2,4.7l-8.2,2.2V37.2c-4.7,0.2-9.2,0.5-14,0.8l-5.5,0.3
	l-2.1-2.6c-4-5-7.8-10.1-11.6-15.2L18.2,8.9h393.5l-9.5,11.7l-13.7,17.6L385.2,38z"/>
<path class="st1" d="M187.4,16h-49.9c0.8,0.4,7.1,2.5,7.1,8.9l0,43.3c-0.1,6.2,4.5,9.2,13.3,8.3c14.3-1.4,28.6-2.3,43-2.6V42.7
	c-9,0.1-17.9,0.3-26.9,0.6v10.5c3-0.1,4.7-0.3,7.7-0.4v10.9c-5.3,0.2-9.8,0.6-15.2,0.9c-1.4,0.1-2-0.4-2-1.5V28
	c0-0.9,0.7-1.4,2.1-1.4c4.4-0.1,8.3-0.1,12.7-0.2c1.4,0,1.9,0.5,1.9,1.5v6.3c6.6-0.1,13.2-0.2,19.8-0.3l0-8.8
	C201,19.4,196.1,16,187.4,16 M303.5,29.5v15.3c0,1.1-0.6,1.8-2,1.7c-5-0.4-9-0.7-14-1V27.1c5,0.1,8.9,0.3,13.9,0.4
	C302.8,27.6,303.5,28.2,303.5,29.5 M323.3,49.7V26.9c-0.1-6.8-5.8-10.9-14.5-10.9h-48.3c0.8,0.4,7.4,2.5,7.4,8.7l0,51.8
	c6.4,0.6,13.2,1.4,19.6,2.2V56.1c3.2,0.3,6.6,0.6,9.8,0.9c3.4,8,5.9,15.9,9.3,24.4c6.4,1.1,13.4,2.6,19.8,3.9
	c-3.5-8.9-7-17.8-10.7-26.6C320.7,57.8,323.4,54.5,323.3,49.7 M44.8,31c7.8-0.4,15.2-0.8,22.9-1.2v63.5c6.4-1.7,13.4-3.4,19.8-4.9
	V28.9c4.6-0.2,10.1-0.4,14.7-0.6V16H33.4C37.1,21.1,40.9,26.1,44.8,31 M376.4,51.2c-6-2.7-19.6-8.9-23.8-10.8
	c-1.6-0.7-2.1-2-2.1-2.8v-6.2c0-1.3,0.7-2,2-1.9c10.1,0.5,22,1,32.1,1.5L396.1,16h-72.5c1,0.5,7.5,2.8,7.5,10.1
	c0,0,0.1,7.9,0.1,12.1c0,4.2,2.2,7.6,7.4,10c5.3,2.4,22.4,9.7,23.7,10.5c1.7,0.9,2,1.8,2,4.3v15.5c0,2.1-1.5,1.8-2,1.7
	c-3.5-0.8-6.4-1.4-9.9-2.1c-0.5-0.1-1.7-0.4-1.8-2.4V65.4c-6.3-1.1-12.7-2.1-19-2.9v11.8c0.1,7.6,5.6,13.2,14.3,15.4
	c8.2,2,16,4.2,24.1,6.5c8.6,2.6,13.6-0.9,13.6-10.2c0.1-0.2,0-23.2,0-23.2C383.5,57.5,382.4,53.9,376.4,51.2 M112.6,25.6l0,57.5
	c6.6-1.2,13.2-2.3,19.8-3.3V16h-26.9C107.3,16.5,112.6,19.5,112.6,25.6 M203.7,16c1,0.5,7.5,2.5,7.5,8.3c0,16.5,0,33,0,49.5
	c15.4-0.1,30.8,0.5,46.1,1.7V65c-9-0.6-17.8-1-26.8-1.2V50.5c8,0.2,15.9,0.3,23.9,0.7V40.3c-8-0.2-15.9-0.4-23.9-0.5
	c0-13.2,0-13.2,0-13.5c8.9,0.1,17.3,0.1,26.1,0.3V16H203.7z"/>
</svg>
